<svg xmlns="http://www.w3.org/2000/svg" viewBox="0 0 128 128" role="img" aria-label="ZChat">
  <defs>
    <linearGradient id="zchatGrad" x1="0" y1="0" x2="1" y2="1">
      <stop offset="0%" stop-color="#3F7DFF"/>
      <stop offset="100%" stop-color="#2EC4FF"/>
    </linearGradient>
  </defs>
  <path d="M20 22c0-7 5-12 12-12h64c7 0 12 5 12 12v52c0 7-5 12-12 12H56l-20 20c-6 6-16 1-15-7V86h-1c-7 0-12-5-12-12V22z" fill="url(#zchatGrad)"/>
  <path d="M41 37h48c3 0 5 2 5 5s-2 5-5 5H61l33 26c2 2 2 5 1 7-2 3-5 3-8 1L35 40c-2-2-3-5-1-7 1-2 4-3 7-3z" fill="#EAF7FF"/>
  <path d="M40 84h50c3 0 5 2 5 5s-2 5-5 5H37c-2 0-4-1-5-3-1-2 0-5 2-7l28-22h-20c-3 0-5-2-5-5s2-5 5-5h34c2 0 4 1 5 3 1 2 0 5-2 7L51 84h-11z" fill="#FFFFFF"/>
</svg>
